<svg xmlns="http://www.w3.org/2000/svg" xmlns:xlink="http://www.w3.org/1999/xlink" width="500" zoomAndPan="magnify" viewBox="0 0 375 374.999991" height="500" preserveAspectRatio="xMidYMid meet" version="1.0"><defs><g/><clipPath id="74e7c78324"><path d="M 45.085938 44 L 330.085938 44 L 330.085938 331.734375 L 45.085938 331.734375 Z M 45.085938 44 " clip-rule="nonzero"/></clipPath><clipPath id="ab122d397a"><path d="M 87.015625 265.535156 C 83.820312 264.085938 82.84375 259.464844 79.898438 255.960938 C 79.253906 254.71875 80.5625 256.355469 82.242188 258.71875 C 83.863281 261.078125 86.226562 263.898438 87.015625 265.535156 Z M 72.238281 266.363281 L 71.011719 267.253906 C 72.488281 269.554688 74.210938 271.546875 75.144531 271.007812 C 74.210938 269.804688 73.460938 269.265625 72.695312 268.746094 C 73.128906 268.269531 73.421875 267.792969 72.238281 266.363281 Z M 147.003906 302.59375 C 149.726562 303.523438 152.300781 304.269531 154 304.167969 C 143.914062 301.679688 132.289062 296.0625 124.316406 292.476562 C 126.726562 293.804688 129.113281 295.171875 131.582031 296.394531 L 139.160156 299.691406 C 141.421875 300.5625 144.285156 301.679688 147.003906 302.59375 Z M 291.707031 278.820312 C 289.816406 281.390625 287.699219 283.546875 285.769531 285.703125 C 283.796875 287.816406 281.929688 289.910156 280.019531 291.753906 C 276.097656 295.359375 272.566406 298.839844 269.019531 301.867188 C 268.933594 301.929688 268.851562 302.011719 268.769531 302.074219 C 267.003906 302.738281 265.324219 303.089844 263.765625 303.007812 C 261.277344 304.996094 258.679688 306.53125 256.253906 308.105469 C 253.78125 309.640625 251.457031 311.171875 249.132812 312.476562 C 249.070312 312.519531 249.007812 312.539062 248.964844 312.5625 C 248.71875 312.539062 248.488281 312.5 248.199219 312.519531 C 248.15625 312.6875 248.117188 312.871094 248.074219 313.039062 C 243.757812 315.316406 239.769531 317.535156 235.890625 319.402344 C 231.65625 321.347656 227.710938 323.460938 223.789062 325.410156 C 219.84375 327.296875 216.003906 329.390625 212.082031 331.730469 C 216.085938 330.261719 220.796875 328.539062 225.882812 326.695312 C 230.804688 324.539062 236.160156 322.550781 241.347656 320.148438 C 242.84375 319.421875 244.359375 318.738281 245.875 318.03125 C 245.875 318.054688 245.851562 318.054688 245.851562 318.074219 C 247.285156 317.640625 248.136719 317.183594 248.84375 316.6875 C 251.457031 315.484375 254.03125 314.28125 256.480469 312.996094 C 254.050781 315.195312 251.644531 317.472656 249.257812 319.917969 C 252.746094 317.472656 256.855469 314.59375 261.277344 311.484375 C 262.0625 310.839844 262.894531 310.21875 263.726562 309.578125 C 263.726562 309.578125 263.746094 309.578125 263.746094 309.578125 C 266.027344 308.5 268.1875 307.402344 270.285156 306.53125 C 270.699219 304.125 267.210938 308.148438 266.652344 307.339844 C 268.1875 306.179688 269.722656 305.015625 271.238281 303.792969 C 274.351562 301.515625 277.34375 299.296875 280.019531 296.914062 C 282.054688 295.195312 284.003906 293.492188 285.851562 291.816406 C 286.414062 291.277344 286.933594 290.714844 287.449219 290.15625 C 289.445312 288.417969 291.4375 286.738281 293.367188 285.183594 C 295.296875 283.546875 297.101562 281.929688 298.910156 280.539062 C 298.679688 278.011719 296.148438 283.316406 295.527344 282.179688 C 299.261719 277.453125 302.914062 273.203125 305.84375 268.746094 C 307.355469 266.570312 308.808594 264.417969 310.160156 262.300781 C 311.445312 260.148438 312.546875 257.929688 313.605469 255.773438 C 309.683594 260.707031 306.027344 265.929688 302.5625 270.40625 C 299.035156 274.839844 295.296875 278.09375 291.707031 278.820312 Z M 324.359375 206.695312 C 323.777344 209.433594 323.257812 211.980469 322.738281 214.40625 C 322.28125 216.851562 321.847656 219.152344 321.429688 221.390625 C 320.933594 223.609375 320.476562 225.804688 320.101562 228.003906 C 320.808594 225.617188 321.554688 223.046875 322.34375 220.4375 C 322.96875 217.785156 323.589844 215.046875 324.210938 212.394531 C 325.519531 207.070312 325.894531 201.824219 325.75 197.785156 C 325.25 200.996094 324.792969 203.941406 324.359375 206.695312 Z M 138.226562 319.917969 C 140.984375 320.789062 144.222656 322.199219 147.460938 323.359375 C 150.699219 324.5 154 325.101562 156.597656 324.976562 C 153.605469 324.167969 149.851562 323.171875 146.527344 321.886719 C 143.164062 320.664062 140.113281 319.730469 138.226562 319.917969 Z M 325.519531 150.988281 C 326.371094 153.679688 327.222656 156.3125 328.03125 158.839844 C 327.324219 155.773438 326.578125 152.726562 325.769531 149.742188 C 324.792969 146.800781 323.777344 143.917969 322.71875 141.140625 C 322.179688 139.753906 321.636719 138.40625 321.097656 137.058594 C 320.515625 135.753906 319.851562 134.488281 319.210938 133.265625 C 317.921875 130.820312 316.59375 128.519531 315.265625 126.425781 C 317.902344 131.855469 320.558594 137.308594 322.488281 142.863281 C 323.507812 145.617188 324.628906 148.3125 325.519531 150.988281 Z M 309.082031 116.355469 C 310.386719 118.511719 311.632812 120.3125 312.859375 121.410156 C 310.304688 117.203125 307.730469 112.066406 304.867188 109.410156 C 305.613281 110.59375 306.382812 111.773438 307.109375 112.933594 C 307.792969 114.117188 308.457031 115.277344 309.082031 116.355469 Z M 141.921875 266.570312 C 141.132812 265.929688 139.71875 264.976562 138.039062 263.960938 C 136.335938 262.945312 134.53125 261.597656 132.578125 260.5625 C 132.039062 260.851562 131.148438 261.058594 132.289062 260.976562 C 134.21875 261.761719 135.960938 263.835938 136.628906 264.480469 C 135.089844 263.339844 133.472656 261.972656 132.953125 263.296875 C 133.410156 263.316406 133.804688 263.464844 134.199219 263.648438 C 134.074219 263.710938 133.96875 263.753906 133.84375 263.878906 C 133.761719 264.3125 134.78125 265.308594 135.984375 266.054688 C 137.207031 266.738281 138.558594 267.234375 138.890625 266.964844 C 138.371094 266.757812 137.871094 266.300781 137.375 265.785156 C 137.746094 265.929688 138.101562 265.910156 138.433594 265.597656 C 137.996094 265.453125 137.476562 265.101562 136.960938 264.726562 C 142.667969 267.917969 143.496094 267.855469 141.921875 266.570312 Z M 144.328125 280.394531 C 146.632812 281.433594 149.144531 283.546875 150.722656 281.910156 C 148.066406 280.957031 145.886719 280.0625 144.328125 280.394531 Z M 46.457031 205.535156 C 46.871094 207.007812 47.308594 208.394531 47.703125 209.578125 C 47.265625 208.085938 46.914062 206.53125 46.746094 204.976562 C 46.621094 203.421875 46.582031 201.867188 46.539062 200.417969 C 46.457031 197.496094 46.394531 194.945312 45.730469 193.265625 C 45.128906 195.007812 45.210938 197.910156 45.625 200.976562 C 45.832031 202.488281 46.125 204.042969 46.457031 205.535156 Z M 132.082031 288.957031 C 131.769531 289.140625 133.511719 290.507812 138.453125 291.648438 C 136.605469 290.570312 135.070312 289.910156 133.96875 289.472656 C 132.910156 289.015625 132.226562 288.851562 132.082031 288.957031 Z M 101.566406 266.632812 C 104.226562 268.480469 107.109375 271.132812 109.539062 271.441406 C 107.816406 270.054688 105.738281 267.816406 104.246094 266.21875 C 102.730469 264.625 101.753906 263.648438 102.417969 264.601562 C 105.074219 267.109375 101.773438 264.957031 101.566406 266.632812 Z M 124.648438 284.519531 C 122.554688 281.554688 118.445312 281.078125 114.851562 277.824219 C 115.039062 280.996094 123.132812 282.863281 124.648438 284.519531 Z M 67.484375 119.296875 C 67.234375 118.59375 67.339844 117.203125 68.085938 117.371094 C 69.394531 115.464844 72.964844 109.226562 73.960938 108.355469 C 75.414062 106.074219 76.84375 103.835938 78.296875 101.679688 C 81.101562 97.828125 83.570312 93.847656 86.042969 90.097656 C 85.605469 91.691406 85.398438 93.226562 83.945312 95.402344 C 85.6875 93.660156 87.371094 92.003906 89.050781 90.386719 C 90.214844 89.140625 91.375 87.917969 92.558594 86.738281 C 96.296875 83.296875 99.929688 79.917969 103.539062 76.769531 C 107.253906 73.765625 110.660156 70.550781 114.023438 67.589844 C 113.191406 69.019531 112.589844 70.449219 110.617188 72.167969 C 110.847656 72.042969 111.054688 71.917969 111.28125 71.796875 C 120.0625 65.453125 129.15625 60.6875 139.222656 57.121094 C 138.703125 56.128906 136.335938 57.082031 133.886719 58.179688 C 132.371094 58.097656 134.71875 57.203125 137.5 56.1875 C 140.238281 55.132812 143.558594 54.34375 143.683594 53.535156 C 143.457031 54.757812 145.324219 54.800781 148.398438 54.199219 C 149.828125 53.867188 151.574219 53.496094 153.480469 53.101562 C 160.1875 51.257812 166.933594 50.035156 173.949219 49.472656 C 173.78125 48.726562 172.496094 48.644531 170.855469 48.8125 C 170.296875 48.894531 169.757812 48.957031 169.175781 49.039062 C 168.96875 49.082031 168.757812 49.101562 168.53125 49.140625 C 167.660156 48.851562 168.242188 48.644531 169.484375 48.480469 C 170.753906 47.484375 175.714844 47.980469 179.800781 46.613281 C 178.785156 45.742188 175.960938 45.972656 174.28125 45.515625 C 180.257812 43.132812 182.335938 47.796875 189.515625 47.132812 C 188.832031 46.449219 187.234375 46.15625 185.199219 46.097656 C 185.90625 45.578125 187.710938 45.578125 187.378906 44.582031 C 195.496094 44.914062 203.652344 45.992188 211.726562 47.773438 C 211.394531 47.628906 211.085938 47.484375 210.8125 47.339844 C 213.742188 46.988281 215.484375 47.878906 217.207031 49.039062 C 218.972656 49.496094 220.714844 50.035156 222.460938 50.550781 C 223.125 50.511719 223.746094 50.449219 223.726562 49.804688 C 242.761719 55.734375 260.921875 65.972656 276.386719 79.734375 C 280.351562 83.277344 284.128906 87.050781 287.71875 91.027344 C 290.210938 93.617188 292.640625 96.273438 294.984375 99.027344 C 295.402344 99.753906 295.898438 100.542969 296.375 101.308594 C 298.722656 102.757812 301.421875 108.457031 303.765625 111.441406 C 303.351562 111.214844 302.894531 110.78125 302.457031 110.242188 C 306.589844 116.582031 310.304688 123.234375 313.5625 130.199219 C 313.769531 131.007812 314.0625 131.898438 314.3125 132.75 C 316.054688 134.613281 317.15625 140.023438 318.484375 143.585938 C 317.882812 141.164062 317.714844 138.863281 318.441406 138.28125 C 320.933594 141.019531 320.640625 146.675781 321.472656 150.011719 C 320.457031 149.308594 319.335938 146.78125 318.628906 144.230469 C 317.09375 142.488281 316.097656 137.246094 314.558594 133.679688 C 314.664062 133.992188 314.726562 134.261719 314.828125 134.574219 C 315.246094 136.125 315.703125 137.785156 316.160156 139.503906 C 317.03125 142.945312 318.359375 146.550781 319.148438 150.511719 C 319.976562 154.449219 321.078125 158.511719 321.660156 162.738281 C 322.199219 166.964844 322.882812 171.234375 323.050781 175.484375 C 323.257812 178.863281 323.320312 182.242188 323.257812 185.617188 C 323.257812 185.640625 323.257812 185.679688 323.257812 185.703125 C 323.257812 185.824219 323.257812 185.949219 323.257812 186.054688 C 323.257812 186.488281 323.257812 186.945312 323.238281 187.378906 C 323.175781 201.972656 321.183594 216.644531 316.554688 230.71875 C 307.191406 259.878906 288.238281 286.570312 261.191406 304.085938 C 261.234375 303.585938 261.503906 303.070312 262.066406 302.488281 C 256.066406 306.632812 249.714844 310.324219 243.03125 313.472656 C 241.121094 314.570312 239.210938 315.671875 237.34375 316.746094 C 235.910156 317.535156 234.519531 318.34375 233.066406 319.027344 C 231.613281 319.671875 230.140625 320.292969 228.664062 320.871094 C 229.660156 319.671875 231.675781 318.65625 233.835938 317.535156 C 234.125 317.371094 234.414062 317.222656 234.707031 317.058594 C 232.402344 317.949219 230.097656 318.800781 227.730469 319.566406 C 228 318.820312 228.75 318.136719 230.554688 317.578125 C 230.429688 317.597656 230.304688 317.640625 230.179688 317.679688 C 229.351562 317.96875 228.519531 318.28125 227.648438 318.550781 C 225.179688 319.378906 222.644531 320.230469 220.195312 321.058594 C 217.707031 321.742188 215.277344 322.300781 213.117188 322.777344 C 215.421875 321.867188 217.996094 321.078125 220.714844 320.125 C 217.394531 321.039062 214.15625 322.03125 210.9375 323.109375 C 207.722656 323.960938 204.546875 324.808594 201.433594 325.640625 C 199.855469 326.011719 198.296875 326.449219 196.71875 326.714844 C 195.140625 326.964844 193.566406 327.195312 192.007812 327.359375 C 193.296875 326.449219 195.472656 325.992188 197.882812 325.472656 C 200.269531 324.871094 202.886719 324.332031 205.023438 323.628906 C 201.679688 323.792969 196.84375 324.601562 191.632812 324.851562 C 189.039062 325.015625 186.363281 325.183594 183.789062 325.347656 C 181.214844 325.371094 178.722656 325.285156 176.503906 325.183594 C 179.84375 324.789062 183.621094 324.746094 187.710938 324.3125 C 191.78125 323.898438 196.160156 323.917969 200.582031 323.195312 C 197.09375 321.847656 192.027344 321.222656 187.003906 320.851562 C 185.761719 320.746094 184.492188 320.644531 183.269531 320.539062 C 182.042969 320.332031 180.859375 320.148438 179.71875 319.960938 C 177.4375 319.546875 175.402344 319.046875 173.804688 318.363281 C 174.675781 318.738281 174.945312 318.136719 174.632812 317.347656 C 172.019531 317.453125 167.640625 316.417969 164.835938 316.3125 C 166.457031 315.546875 170.9375 316.582031 174.40625 316.933594 C 173.992188 316.269531 173.222656 315.566406 172.019531 315.195312 C 171.8125 315.109375 171.625 315.046875 171.4375 314.984375 C 171.707031 314.964844 171.9375 314.863281 172.058594 314.675781 C 171.75 315.132812 167.785156 311.566406 171.332031 312.085938 C 167.015625 311.089844 163.03125 309.847656 159.292969 308.5625 C 155.621094 307.089844 152.214844 305.390625 148.9375 303.730469 C 152.609375 304.519531 158.503906 307.609375 164.566406 308.871094 C 170.542969 310.488281 176.417969 310.488281 178.621094 307.546875 C 176.480469 305.679688 174.300781 303.980469 171.332031 302.46875 C 168.386719 300.789062 164.546875 299.671875 159.085938 298.632812 C 158.816406 297.640625 159.128906 296.480469 157.945312 295.710938 C 158.257812 294.925781 161.390625 297.265625 164.046875 297.078125 C 165.003906 296.914062 165.167969 296.085938 166.871094 296.539062 C 166.808594 296.269531 166.640625 296.023438 166.476562 295.792969 C 164.566406 295.585938 161.953125 295.277344 160.105469 295.214844 C 159.980469 294.300781 160.996094 294.425781 162.054688 294.59375 C 158.960938 293.472656 156.617188 293.058594 154.230469 292.4375 C 151.820312 291.898438 149.269531 291.503906 145.84375 290.449219 C 146.613281 289.597656 145.035156 289.058594 143.789062 288.480469 C 146.921875 289.183594 151.40625 290.15625 155.910156 291.753906 C 158.152344 292.5625 160.539062 293.078125 162.738281 293.824219 C 163.714844 294.117188 164.671875 294.449219 165.605469 294.777344 C 164.816406 294.117188 163.859375 293.515625 163.15625 292.808594 C 165.105469 292.375 170.027344 297.246094 170.960938 293.101562 C 171.042969 291.648438 167.597656 291.609375 165.25 291.109375 C 165.582031 290.03125 167.535156 290.40625 169.589844 290.820312 C 169.382812 289.265625 168.59375 288.148438 168.757812 287.359375 C 167.308594 287.152344 165.976562 286.777344 165.5 286.507812 C 165.730469 286.136719 166.394531 286.179688 166.496094 285.679688 C 156.265625 283.464844 166.828125 284.851562 170.234375 286.34375 C 170.253906 286.34375 170.273438 286.324219 170.316406 286.324219 C 168.449219 284.582031 167.328125 283.816406 166.144531 283.171875 C 164.960938 282.570312 163.738281 281.972656 161.867188 280.5 C 162.554688 280.125 163.777344 280.5625 165.066406 281.078125 C 166.371094 281.535156 167.722656 282.15625 168.550781 282.425781 C 169.425781 282.074219 170.273438 281.703125 171.085938 281.308594 C 169.941406 279.503906 164.980469 280.832031 164.441406 279.609375 C 164.671875 278.925781 164.878906 278.242188 164.046875 277.929688 C 165.9375 277.496094 168.53125 280.210938 171.976562 280.4375 C 171.914062 279.734375 169.050781 278.988281 172.121094 279.441406 C 171.269531 278.300781 167.660156 278.425781 166.433594 277.453125 C 168.15625 277.265625 171.832031 277.390625 174.570312 277.785156 C 175.234375 276.519531 173.222656 276.5625 172.621094 275.941406 C 171.085938 275.585938 170.296875 275.960938 170.234375 277.078125 C 167.910156 275.171875 167.742188 273.472656 165.292969 272.539062 C 164.402344 270.902344 168.488281 272.355469 166.308594 271.234375 C 167.535156 270.40625 170.460938 270.902344 173.449219 271.566406 C 174.199219 271.734375 174.945312 271.878906 175.671875 272.023438 C 176.398438 272.105469 177.105469 272.148438 177.769531 272.167969 C 178.742188 272.1875 179.574219 272.148438 180.195312 271.941406 C 177.683594 271.773438 175.195312 271.484375 172.683594 271.109375 C 172.414062 271.070312 172.121094 271.027344 171.851562 270.988281 C 171.085938 270.863281 170.335938 270.71875 169.570312 270.570312 C 168.800781 270.425781 168.03125 270.28125 167.265625 270.136719 C 166.996094 270.074219 166.746094 270.011719 166.476562 269.949219 C 160.851562 268.6875 155.433594 266.882812 150.285156 264.582031 C 150.160156 264.519531 150.035156 264.457031 149.910156 264.417969 C 148.769531 263.898438 147.628906 263.359375 146.527344 262.800781 C 146.15625 262.613281 145.800781 262.425781 145.449219 262.242188 C 144.597656 261.804688 143.746094 261.347656 142.917969 260.871094 C 142.335938 260.539062 141.773438 260.210938 141.195312 259.855469 C 140.613281 259.503906 140.011719 259.152344 139.429688 258.800781 C 139.222656 258.675781 139.015625 258.550781 138.828125 258.425781 C 138.683594 258.632812 139.261719 259.132812 140.714844 259.898438 C 139.054688 260.519531 136.605469 257.390625 135.589844 256.5 C 133.367188 258.925781 138.371094 259.648438 139.054688 261.285156 C 135.589844 260.664062 133.203125 257.285156 130.378906 256.519531 C 131.023438 257.308594 133.304688 259.214844 135.902344 261.015625 C 134.386719 260.394531 132.433594 260.003906 130.566406 259.378906 C 130.128906 259.234375 129.695312 259.070312 129.300781 258.863281 C 130.460938 259.960938 131.542969 261.058594 132.394531 261.742188 C 132.144531 261.765625 131.894531 261.703125 131.644531 261.660156 C 131.6875 261.742188 131.769531 261.804688 131.8125 261.886719 C 127.867188 261.785156 125.625 256.5625 120.996094 255.234375 C 120.601562 256.625 124.132812 256.625 124.109375 258.511719 C 124.503906 257.910156 125.855469 258.964844 127.246094 260.394531 C 128.636719 261.847656 130.316406 263.441406 130.980469 264.375 C 126.996094 262.199219 124.441406 259.898438 121.640625 257.765625 C 120.207031 256.726562 118.878906 255.523438 117.40625 254.21875 C 115.890625 252.957031 114.230469 251.566406 112.320312 249.972656 C 116.078125 253.886719 117.675781 258.011719 122.699219 262.613281 C 121.351562 258.988281 124.671875 263.628906 124.796875 265.015625 C 126 264.5625 127.847656 265.722656 129.882812 267.316406 C 129.589844 267.710938 128.863281 267.089844 128.304688 266.839844 C 134.820312 273.390625 144.847656 277.660156 156.636719 282.21875 C 154.5625 281.824219 152.507812 281.328125 150.472656 280.789062 C 148.457031 280.167969 146.550781 279.316406 144.640625 278.53125 C 143.996094 278.28125 143.394531 277.992188 142.792969 277.722656 C 144.078125 278.488281 145.136719 279.253906 145.242188 279.734375 C 146.402344 280.332031 146.714844 279.792969 147.691406 280.148438 C 148.105469 280.851562 146.445312 280.625 144.496094 280.0625 C 142.542969 279.523438 140.46875 278.34375 139.90625 277.804688 C 140.21875 277.515625 140.863281 277.722656 141.070312 277.265625 C 136.148438 274.738281 136.605469 274.695312 138.535156 275.546875 C 137 274.675781 135.527344 273.761719 134.054688 272.894531 C 132.394531 271.960938 130.917969 270.839844 129.445312 269.804688 C 128.574219 269.347656 127.703125 268.914062 126.851562 268.417969 C 125.085938 267.296875 123.445312 265.992188 121.804688 264.726562 C 120.808594 264.003906 119.898438 263.234375 119.003906 262.425781 C 118.464844 262.09375 117.945312 261.765625 117.40625 261.472656 C 119.441406 263.566406 121.328125 265.515625 123.257812 267.277344 C 124.339844 267.855469 125.523438 268.6875 126.890625 269.640625 C 126.703125 269.761719 126.519531 269.804688 126.332031 269.847656 C 126.351562 269.867188 126.371094 269.886719 126.414062 269.910156 C 127.949219 271.109375 129.445312 272.269531 130.941406 273.433594 C 132.515625 274.488281 134.15625 275.464844 135.816406 276.5 C 142.460938 280.601562 150.390625 284.210938 162.011719 287.316406 C 159.441406 287.339844 156.71875 286.71875 153.917969 285.867188 C 151.117188 285.058594 148.1875 284.105469 145.429688 282.757812 C 139.742188 280.417969 134.449219 277.308594 129.339844 275.523438 C 128.863281 274.902344 129.15625 274.820312 129.425781 274.53125 C 129.238281 274.40625 129.03125 274.300781 128.84375 274.179688 C 126.332031 272.664062 123.777344 271.007812 121.453125 268.976562 C 120.25 268.0625 119.085938 267.109375 117.945312 266.136719 C 118.566406 267.195312 118.960938 268.332031 119.460938 267.835938 C 120.996094 269.824219 117.613281 268.4375 116.574219 267.402344 C 116.554688 268.5625 117.757812 270.425781 115.269531 268.957031 C 114.707031 270.03125 116.597656 271.523438 116.636719 272.75 C 117.363281 272.976562 118.027344 273.265625 119.003906 273.949219 L 121.890625 275.941406 C 124.171875 277.183594 126.726562 278.65625 129.257812 280.375 C 131.210938 281.742188 133.390625 282.839844 135.320312 284.148438 C 137.3125 285.371094 139.117188 286.738281 140.800781 287.773438 C 141.257812 288.25 135.691406 285.804688 132.453125 284.808594 C 132.476562 284.582031 132.558594 284.4375 132.683594 284.355469 C 128.925781 283.027344 125.523438 280.582031 120.457031 276.851562 C 120.269531 276.726562 120.082031 276.644531 119.898438 276.519531 C 119.917969 276.5 119.917969 276.480469 119.9375 276.480469 C 119.792969 276.375 119.667969 276.292969 119.523438 276.167969 C 119.6875 276.25 119.835938 276.3125 120 276.394531 C 120.476562 275.941406 119.957031 275.378906 119.230469 274.777344 C 114.832031 272.976562 111.699219 270.71875 108.335938 268.4375 C 106.738281 267.152344 105.097656 265.824219 103.289062 264.394531 C 101.464844 262.964844 99.410156 261.472656 97.230469 259.585938 C 97.375 256.292969 91.1875 253.867188 88.699219 249.019531 C 89.113281 249.722656 89.859375 252.355469 91.125 254.777344 C 91.832031 255.980469 92.640625 257.121094 93.535156 257.949219 C 93.285156 257.410156 93.160156 256.894531 93.242188 256.375 C 93.929688 257.433594 94.695312 258.324219 95.484375 259.109375 C 95.753906 259.171875 96.003906 259.214844 96.273438 259.195312 C 96.523438 259.671875 96.523438 259.898438 96.417969 260.023438 C 98.328125 261.804688 100.175781 263.214844 100.964844 265.371094 C 100.324219 264.125 97.292969 262.179688 95.214844 260.125 C 95.175781 260.125 95.132812 260.148438 95.113281 260.148438 C 97.167969 261.929688 97.582031 262.179688 97.6875 264.023438 C 98.828125 264.933594 97.8125 262.839844 99.078125 264.003906 C 99.636719 265.496094 100.113281 266.882812 102.523438 270.011719 C 103.125 270.613281 103.683594 271.234375 104.308594 271.816406 C 104.722656 271.378906 104.183594 270.695312 103.519531 269.949219 C 107.128906 273.722656 111.136719 277.246094 115.453125 280.5625 C 115.226562 280.167969 115.183594 279.773438 115.496094 279.441406 C 117.15625 280.808594 119.003906 281.929688 120.808594 283.109375 C 120.375 283.132812 118.816406 282.695312 117.425781 282.054688 C 126.871094 288.976562 137.871094 294.820312 150.515625 299.316406 C 150.492188 300.808594 145.761719 297.390625 145.699219 298.839844 C 148.355469 300.933594 155.558594 302.300781 160.167969 303.378906 C 161.433594 301.785156 156.679688 301.929688 154.851562 301.183594 C 152.734375 299.941406 162.554688 302.074219 163.132812 302.964844 C 161.535156 303.941406 158.257812 303.566406 154.5625 302.738281 C 150.929688 301.679688 146.902344 300.125 143.519531 299.171875 C 144.140625 298.945312 144.742188 298.71875 144.929688 298.03125 C 144.039062 297.761719 143.144531 297.433594 142.273438 297.058594 C 141.859375 298.117188 142.460938 298.21875 139.574219 298.675781 C 138.847656 298.53125 138.453125 298.117188 138.203125 297.660156 C 137.769531 297.492188 137.332031 297.328125 136.875 297.121094 C 134.695312 296.167969 132.371094 294.550781 130.691406 294.03125 C 132.226562 294.074219 133.367188 294.46875 134.488281 295.007812 C 134.40625 294.507812 134.65625 294.117188 132.996094 293.078125 C 131.167969 293.433594 128.261719 292.292969 125.042969 290.632812 C 121.804688 288.664062 118.320312 286.117188 115.308594 284.332031 C 115.722656 284.292969 116.117188 284.230469 116.449219 284.0625 C 115.746094 283.546875 115.039062 283.027344 114.332031 282.507812 C 114.0625 282.964844 113.855469 283.070312 111.65625 282.839844 C 109.351562 281.703125 111.59375 278.46875 108.957031 280.0625 C 107.046875 278.117188 107.878906 278.011719 107.734375 277.246094 C 104.972656 275.070312 102.398438 273.121094 100.34375 271.734375 C 100.632812 271.691406 100.777344 271.585938 100.839844 271.464844 C 98.847656 269.578125 96.566406 267.214844 94.425781 264.4375 C 93.160156 262.863281 91.875 261.265625 90.585938 259.648438 C 90.566406 259.628906 90.546875 259.609375 90.546875 259.585938 C 90.421875 260.105469 90.253906 260.75 89.175781 259.980469 C 88.84375 260.5625 89.238281 261.164062 89.820312 261.722656 C 89.777344 261.640625 89.714844 261.554688 89.632812 261.453125 C 90.671875 261.617188 91.1875 262.34375 91.605469 263.214844 C 91.976562 263.566406 92.183594 263.855469 91.976562 264.085938 C 92.371094 265.078125 92.789062 266.136719 93.617188 266.902344 C 92.226562 267.089844 91.8125 265.515625 91.457031 264.332031 C 91.4375 264.332031 91.4375 264.355469 91.417969 264.355469 C 91.023438 263.878906 90.691406 263.546875 90.398438 263.257812 C 90.316406 263.339844 90.214844 263.421875 90.089844 263.566406 C 89.882812 263.257812 89.859375 263.027344 89.902344 262.800781 C 88.800781 261.886719 88.367188 262.09375 87.597656 261.226562 C 87.039062 259.835938 87.308594 258.820312 88.40625 258.179688 C 86.746094 255.710938 85.648438 255.378906 84.402344 255.171875 C 88.054688 257.824219 83.53125 255.855469 86.789062 259.378906 C 86.207031 259.523438 85.316406 258.09375 84.796875 258.449219 C 85.460938 260.914062 89.382812 264.769531 90.753906 267.464844 C 87.785156 264.25 83.863281 260.167969 81.082031 256.375 C 78.195312 252.664062 75.664062 249.804688 74.769531 249.617188 C 73.523438 249.804688 73.027344 244.601562 75.164062 248.230469 C 74.707031 246.738281 70.015625 241.824219 68.355469 237.101562 C 68.230469 238.550781 68.644531 240.3125 66.902344 238.863281 C 68.210938 243.195312 68.375 241.886719 70.535156 245.019531 C 69.933594 244.726562 69.3125 244.457031 68.707031 244.808594 C 70.742188 247.546875 70.847656 246.117188 71.136719 249.347656 C 64.867188 239.089844 59.304688 225.390625 56.109375 211.089844 C 54.304688 204.125 53.597656 196.808594 53.035156 189.824219 C 52.933594 186.34375 52.890625 182.902344 52.890625 179.609375 C 52.828125 176.292969 53.285156 173.140625 53.492188 170.117188 C 52.726562 169.058594 53.761719 167.816406 54.53125 166.324219 C 54.699219 164.996094 54.90625 163.710938 55.113281 162.40625 C 54.636719 162.179688 53.578125 163.734375 54.324219 160.789062 C 54.90625 159.796875 55.507812 158.21875 56.128906 156.3125 C 56.191406 156.003906 56.234375 155.691406 56.296875 155.378906 C 57.105469 151.980469 57.957031 148.664062 58.808594 145.472656 C 59.597656 142.261719 60.863281 139.316406 61.859375 136.457031 C 61.339844 135.132812 62.957031 134.15625 64.140625 132.75 C 64.578125 131.671875 65.015625 130.574219 65.46875 129.496094 C 65.160156 128.976562 63.539062 130.425781 65.074219 127.691406 C 65.988281 126.800781 67.089844 125.246094 68.3125 123.320312 C 68.5625 122.820312 68.792969 122.304688 69.0625 121.828125 C 70.308594 119.421875 71.488281 117.101562 72.671875 114.964844 C 73.960938 112.914062 75.183594 111.027344 76.285156 109.371094 C 72.050781 114.925781 68.9375 120.519531 65.761719 125.949219 C 63.042969 131.609375 60.15625 137.140625 58.246094 143.421875 C 60.011719 134.757812 63.539062 126.738281 67.484375 119.296875 Z M 136.730469 296.292969 C 137.042969 296.4375 137.375 296.582031 137.707031 296.726562 C 137.519531 296.167969 137.332031 295.855469 136.730469 296.292969 Z M 108.210938 256.746094 C 108.023438 256.5625 107.835938 256.355469 107.628906 256.167969 C 107.523438 256.519531 107.546875 256.851562 107.609375 257.203125 C 107.691406 256.996094 107.960938 256.957031 108.210938 256.746094 Z M 226.527344 56.023438 C 227.753906 56.394531 228.914062 56.75 229.953125 56.976562 C 228.914062 56.542969 227.917969 56.148438 226.921875 55.753906 C 226.671875 55.835938 226.527344 55.917969 226.527344 56.023438 Z M 87.246094 246.964844 C 86.1875 245.867188 85.148438 244.480469 84.109375 243.171875 C 84.027344 243.234375 83.964844 243.253906 83.882812 243.359375 C 84.984375 245.535156 86.519531 248.0625 87.617188 247.484375 C 87.515625 247.339844 87.371094 247.152344 87.246094 246.964844 Z M 78.050781 232.148438 C 78.382812 232.5625 78.734375 232.914062 79.128906 233.164062 C 78.816406 232.5 78.507812 231.773438 78.238281 230.839844 C 78.070312 231.195312 78.027344 231.648438 78.050781 232.148438 Z M 78.691406 234.179688 C 78.734375 234.242188 78.753906 234.300781 78.777344 234.386719 C 79.234375 235.046875 79.542969 235.546875 79.792969 235.980469 C 79.875 236.085938 79.9375 236.210938 80.042969 236.3125 C 81.578125 238.261719 83.507812 240.042969 84.359375 240.996094 C 82.90625 237.535156 81.246094 236.625 79.835938 234.425781 C 79.542969 234.449219 79.046875 234.136719 78.691406 234.179688 Z M 79.6875 248.332031 C 80.851562 250.15625 81.808594 251.441406 81.558594 250.21875 C 80.207031 248.5625 79.628906 246.925781 79.128906 245.617188 C 78.589844 244.332031 78.050781 243.378906 76.804688 242.964844 C 77.425781 243.960938 78.609375 246.449219 79.6875 248.332031 Z M 79.9375 252.394531 L 83.757812 258.09375 L 84.589844 257.492188 C 83.011719 255.878906 81.140625 250.695312 79.9375 252.394531 Z M 130.253906 292.789062 C 130.335938 292.726562 130.335938 292.664062 130.398438 292.601562 C 129.507812 292.269531 128.449219 291.792969 127.246094 291.152344 C 124.648438 289.804688 121.410156 287.917969 118.234375 285.492188 C 120.832031 288 126.496094 290.777344 130.253906 292.789062 Z M 115.558594 264.582031 C 115.746094 264.519531 115.933594 264.539062 116.097656 264.5625 C 113.296875 262.136719 110.597656 259.753906 107.835938 257.886719 C 108.3125 258.882812 109.351562 259.898438 110.597656 260.976562 C 111.59375 261.804688 112.671875 262.757812 113.835938 263.648438 C 114.996094 264.539062 116.160156 265.492188 117.136719 266.570312 C 117.425781 266.03125 116.265625 265.285156 115.558594 264.582031 Z M 129.632812 273.285156 C 129.238281 273.164062 128.738281 272.914062 128.15625 272.601562 C 128.636719 272.933594 129.132812 273.265625 129.632812 273.597656 C 129.632812 273.492188 129.652344 273.410156 129.632812 273.285156 Z M 127.929688 258.800781 C 127.308594 258.117188 126.664062 257.433594 125.957031 256.769531 C 126.144531 257.578125 126.953125 258.179688 127.929688 258.800781 Z M 126.039062 256.230469 C 126.019531 256.1875 125.980469 256.167969 125.957031 256.125 C 125.957031 256.148438 125.957031 256.167969 125.957031 256.1875 C 125.980469 256.1875 126.019531 256.210938 126.039062 256.230469 Z M 316.035156 146.488281 C 315.203125 143.855469 314.375 141.765625 314.289062 141.992188 C 314.289062 142.011719 314.289062 142.035156 314.289062 142.054688 C 315.015625 143.960938 315.578125 145.433594 316.035156 146.488281 Z M 303.269531 115.546875 C 303.039062 114.882812 302.230469 113.472656 300.964844 111.691406 C 302.042969 113.558594 302.789062 114.820312 303.289062 115.585938 C 303.269531 115.566406 303.269531 115.566406 303.269531 115.546875 Z M 296.875 102.117188 C 296.980469 102.261719 297.039062 102.40625 297.144531 102.550781 C 297.808594 103.464844 298.453125 104.417969 299.097656 105.328125 C 298.371094 104.1875 297.621094 103.070312 296.875 102.117188 Z M 179.222656 47.941406 C 179.65625 48.5625 181.253906 48.894531 183.558594 49.058594 C 185.511719 49.140625 187.980469 49.265625 190.722656 49.410156 C 191.449219 49.390625 192.113281 49.328125 192.628906 49.203125 C 192.359375 49.308594 192.214844 49.410156 192.070312 49.496094 C 193.210938 49.558594 194.375 49.640625 195.558594 49.722656 C 195.308594 48.976562 199.894531 49.515625 206.0625 50.550781 C 207.429688 50.820312 208.882812 51.171875 210.378906 51.527344 C 212.972656 51.960938 215.234375 52.582031 217.082031 53.246094 C 217.601562 53.371094 218.121094 53.515625 218.640625 53.640625 C 218.867188 53.703125 219.097656 53.765625 219.324219 53.847656 C 218.183594 52.605469 222.914062 54.78125 226.113281 55.441406 C 224.578125 54.84375 223.0625 54.242188 221.609375 53.703125 C 218.953125 52.75 216.355469 52.105469 213.867188 51.402344 C 211.457031 50.78125 209.113281 50.136719 206.828125 49.679688 C 206.207031 49.597656 205.625 49.515625 204.980469 49.433594 C 204.980469 49.410156 205.003906 49.410156 205.023438 49.390625 C 203.195312 49.101562 201.390625 48.8125 199.585938 48.582031 C 197.257812 48.3125 194.957031 47.960938 192.589844 47.859375 C 190.222656 47.796875 187.835938 47.753906 185.34375 47.773438 C 183.371094 47.710938 181.316406 47.796875 179.222656 47.941406 Z M 63.144531 121.246094 C 63.957031 119.132812 67.132812 115.339844 66.382812 114.363281 C 65.511719 115.648438 64.765625 115.546875 63.894531 116.707031 C 65.347656 116.976562 62.355469 120.5 63.144531 121.246094 Z M 144.617188 296.394531 C 146.175781 296.707031 147.941406 296.707031 148.375 296.582031 C 146.320312 295.917969 144.246094 295.316406 142.292969 294.40625 C 141.816406 295.339844 143.0625 296.085938 144.617188 296.394531 Z M 172.246094 305.410156 C 169.652344 305.640625 167.761719 305.265625 166.0625 304.894531 C 164.359375 304.457031 162.84375 304.125 160.808594 304.625 C 162.554688 304.6875 165.210938 305.640625 167.578125 305.992188 C 169.941406 306.363281 171.957031 306.46875 172.246094 305.410156 Z M 144.535156 268.914062 C 148.3125 269.910156 151.324219 273.824219 153.980469 272.851562 C 151.550781 271.816406 147.214844 268.664062 144.535156 268.914062 Z M 160.953125 275.070312 C 159.066406 274.925781 155.265625 272.230469 155.039062 274.261719 C 157.53125 273.742188 159.9375 276.625 160.953125 275.070312 Z M 104.867188 303.046875 C 107.316406 304.601562 110.078125 306.800781 112.902344 308.769531 C 115.722656 310.695312 118.753906 312.148438 121.308594 312.6875 C 118.628906 311.132812 115.246094 309.203125 112.382812 307.089844 C 109.433594 305.058594 106.738281 303.378906 104.867188 303.046875 Z M 54.820312 236.6875 C 55.363281 236.332031 55.757812 235.960938 54.988281 234.28125 L 53.578125 234.820312 C 54.40625 237.433594 55.546875 239.792969 56.605469 239.523438 C 56.027344 238.117188 55.425781 237.390625 54.820312 236.6875 Z M 131.457031 306.386719 C 134.570312 307.339844 139.492188 310.09375 141.796875 310.054688 C 145.304688 311.402344 148.5625 312.375 149.808594 311.898438 C 147.546875 311.195312 144.203125 309.949219 140.902344 308.769531 C 137.625 307.566406 134.488281 306.074219 132.289062 305.554688 C 133.472656 306.09375 134.964844 306.882812 136.605469 307.710938 C 137.144531 308 137.726562 308.269531 138.289062 308.5625 C 135.609375 307.402344 132.847656 306.136719 131.457031 306.386719 Z M 112.402344 275.835938 C 110.886719 274.324219 109.582031 273.285156 108.644531 272.582031 C 107.734375 271.835938 107.128906 271.523438 106.945312 271.585938 C 106.589844 271.671875 107.917969 273.433594 112.402344 275.835938 Z M 98.539062 272.957031 C 102.625 276.292969 107.816406 280.6875 113.296875 284.746094 C 113.273438 284.4375 113.234375 284.148438 112.714844 283.773438 C 115.144531 283.546875 115.683594 286.800781 117.988281 288.023438 C 117.964844 288.023438 117.945312 288.023438 117.925781 288.042969 C 120.019531 289.453125 122.117188 290.800781 124.195312 291.941406 C 122.53125 291.585938 120.230469 290.21875 117.839844 288.601562 C 117.59375 288.4375 117.363281 288.269531 117.113281 288.105469 C 116.761719 288.023438 116.429688 287.773438 116.160156 287.464844 C 114.3125 286.179688 112.527344 284.851562 111.011719 283.753906 L 104.558594 278.613281 C 102.480469 276.808594 100.53125 274.863281 98.539062 272.957031 Z M 113.980469 285.265625 C 114.417969 285.578125 114.851562 285.886719 115.289062 286.199219 C 114.8125 285.410156 114.417969 284.808594 113.980469 285.265625 Z M 49.488281 174.449219 C 49.527344 172.417969 49.695312 171.503906 50.007812 171.546875 C 49.777344 172.957031 49.570312 174.449219 49.34375 176.003906 C 49.195312 175.835938 49.09375 175.628906 48.90625 175.484375 C 48.761719 179.195312 48.386719 183.316406 48.449219 187.671875 C 48.40625 192.023438 48.261719 196.625 48.71875 201.140625 C 49.050781 205.679688 49.425781 210.21875 50.421875 214.34375 C 51.335938 218.488281 52.1875 222.40625 53.660156 225.554688 C 53.140625 222.34375 52.582031 218.945312 52.039062 215.503906 C 52.539062 217.910156 53.097656 220.4375 53.824219 223.027344 C 54.925781 227.257812 55.964844 231.710938 57.582031 235.980469 C 59.078125 240.269531 60.632812 244.5625 62.648438 248.292969 C 64.597656 252.0625 66.445312 255.609375 68.6875 258.28125 C 63.457031 246.675781 57.023438 232.851562 55.03125 221.183594 C 55.363281 221.929688 55.632812 223.195312 56.128906 223.070312 C 54.84375 221.496094 54.179688 218.800781 53.761719 216.332031 C 53.347656 214.074219 52.828125 212.105469 51.460938 211.359375 C 51.355469 210.59375 51.25 209.824219 51.148438 209.058594 C 51.230469 209.371094 51.335938 209.679688 51.417969 209.972656 C 50.691406 206.925781 50.855469 206.34375 52.019531 207.710938 C 51.085938 204.808594 50.734375 201.347656 50.339844 197.679688 C 50.152344 195.855469 50.007812 193.972656 49.882812 192.0625 C 49.859375 191.585938 49.859375 191.089844 49.859375 190.613281 C 49.882812 189.101562 49.964844 187.609375 50.089844 186.15625 C 50.214844 186.964844 50.152344 188.25 50.648438 188.273438 C 49.820312 186.40625 49.859375 183.628906 50.109375 181.140625 C 50.191406 180.023438 50.234375 178.964844 50.152344 178.054688 C 50.191406 177.203125 50.214844 176.292969 50.296875 175.484375 C 50.402344 174.34375 50.484375 173.246094 50.566406 172.167969 C 50.609375 172.230469 50.628906 172.292969 50.671875 172.375 C 50.648438 171.773438 50.671875 171.132812 50.691406 170.511719 C 50.710938 170.054688 50.734375 169.617188 50.773438 169.183594 C 50.941406 166.988281 51.292969 164.664062 51.667969 162.261719 C 51.957031 160.4375 52.308594 158.59375 52.683594 156.726562 C 53.058594 154.863281 53.660156 153.039062 54.15625 151.214844 C 54.15625 151.195312 54.179688 151.171875 54.179688 151.152344 C 54.261719 151.566406 54.425781 152.003906 54.636719 152.210938 C 55.589844 148.105469 57.023438 144.105469 58.308594 140.066406 C 58.101562 137.535156 55.589844 147.339844 54.636719 150.035156 C 54.574219 150.035156 54.550781 150.117188 54.488281 150.136719 C 55.445312 146.882812 56.316406 143.671875 57.375 140.832031 C 58.539062 137.660156 59.554688 134.78125 60.21875 132.375 C 59.078125 134.820312 57.6875 137.929688 56.210938 141.390625 C 54.863281 144.894531 53.679688 148.832031 52.496094 152.769531 C 51.875 154.738281 51.417969 156.726562 51.085938 158.738281 C 50.710938 160.726562 50.378906 162.675781 50.109375 164.542969 C 49.859375 166.40625 49.570312 168.1875 49.507812 169.847656 C 49.402344 171.546875 49.425781 173.078125 49.488281 174.449219 Z M 118.132812 298.300781 C 116.117188 297.039062 113.210938 294.964844 110.347656 292.976562 C 107.484375 290.964844 104.847656 288.726562 102.855469 287.648438 C 103.851562 288.476562 105.097656 289.617188 106.464844 290.839844 C 107.816406 292.105469 109.308594 293.371094 110.867188 294.449219 C 113.898438 296.664062 116.804688 298.449219 118.132812 298.300781 Z M 46.269531 164.230469 C 46.082031 165.765625 45.9375 167.339844 45.875 168.851562 C 45.894531 170.386719 45.957031 171.835938 46.019531 173.078125 C 45.980469 171.527344 46.0625 169.929688 46.3125 168.394531 C 46.601562 166.863281 46.953125 165.347656 47.285156 163.917969 C 47.953125 161.078125 48.554688 158.59375 48.367188 156.808594 C 47.308594 158.34375 46.644531 161.164062 46.269531 164.230469 Z M 171.394531 314.945312 C 167.824219 313.703125 170.066406 315.089844 171.394531 314.945312 Z M 83.839844 91.753906 C 85.167969 89.910156 89.21875 87.089844 88.761719 85.949219 C 87.578125 86.964844 86.890625 86.65625 85.75 87.566406 C 87.058594 88.210938 83.257812 90.84375 83.839844 91.753906 Z M 157.050781 271.792969 C 154.894531 271.316406 151.550781 268.976562 150.183594 269.703125 C 152.359375 271.214844 154.519531 272.0625 157.050781 271.792969 Z M 321.636719 146.757812 C 321.992188 148.085938 322.34375 149.371094 322.65625 150.570312 C 323.359375 152.976562 324.085938 155.050781 324.980469 156.4375 C 323.589844 151.710938 322.449219 146.074219 320.371094 142.78125 C 320.808594 144.125 321.222656 145.453125 321.636719 146.757812 Z M 212.972656 324.355469 C 212.039062 326.074219 211.230469 327.792969 209.238281 329.121094 C 212.785156 329.015625 213.242188 327.878906 215.878906 327.339844 C 215.671875 325.761719 214.800781 324.707031 212.972656 324.355469 Z M 325.914062 186.28125 C 325.976562 182.839844 327.71875 177.472656 326.019531 174.179688 C 324.191406 174.988281 324.273438 184.355469 325.914062 186.28125 Z M 150.304688 309.328125 C 151.695312 310.925781 158.941406 313.804688 161.910156 313.101562 C 158.734375 311.691406 152.484375 308.769531 150.304688 309.328125 Z M 310.449219 248.832031 C 309.371094 251.070312 308.355469 253.183594 307.378906 255.234375 C 306.320312 257.246094 305.324219 259.253906 304.367188 261.265625 C 305.675781 259.152344 307.066406 256.871094 308.476562 254.53125 C 309.765625 252.125 311.074219 249.660156 312.378906 247.234375 C 315.039062 242.425781 316.738281 237.472656 317.652344 233.515625 C 316.34375 236.480469 315.140625 239.214844 314 241.761719 C 312.734375 244.292969 311.550781 246.632812 310.449219 248.832031 Z M 328.757812 179.648438 C 329.027344 182.570312 329.402344 185.453125 329.566406 188.273438 C 329.691406 191.109375 329.816406 193.847656 329.941406 196.519531 C 330.046875 193.390625 330.128906 190.242188 330.105469 187.152344 C 329.941406 184.0625 329.691406 181.019531 329.402344 178.054688 C 329.234375 176.582031 329.070312 175.132812 328.902344 173.703125 C 328.675781 172.273438 328.363281 170.902344 328.074219 169.535156 C 327.472656 166.839844 326.785156 164.273438 326.039062 161.910156 C 327.160156 167.835938 328.300781 173.785156 328.757812 179.648438 Z M 328.757812 179.648438 " clip-rule="nonzero"/></clipPath><linearGradient x1="-10.356393" gradientTransform="matrix(-2.05172, -0.314422, 0.31491, -2.048542, 305.745727, 348.593317)" y1="68.556999" x2="146.460126" gradientUnits="userSpaceOnUse" y2="68.556999" id="bb0b40dcb7"><stop stop-opacity="1" stop-color="rgb(43.499756%, 83.898926%, 100%)" offset="0"/><stop stop-opacity="1" stop-color="rgb(43.499756%, 83.898926%, 100%)" offset="0.0625"/><stop stop-opacity="1" stop-color="rgb(43.621826%, 83.938599%, 99.926758%)" offset="0.0703125"/><stop stop-opacity="1" stop-color="rgb(43.882751%, 84.024048%, 99.769592%)" offset="0.078125"/><stop stop-opacity="1" stop-color="rgb(44.161987%, 84.114075%, 99.601746%)" offset="0.0859375"/><stop stop-opacity="1" stop-color="rgb(44.442749%, 84.205627%, 99.433899%)" offset="0.09375"/><stop stop-opacity="1" stop-color="rgb(44.721985%, 84.29718%, 99.266052%)" offset="0.101562"/><stop stop-opacity="1" stop-color="rgb(45.002747%, 84.387207%, 99.098206%)" offset="0.109375"/><stop stop-opacity="1" stop-color="rgb(45.281982%, 84.47876%, 98.931885%)" offset="0.117187"/><stop stop-opacity="1" stop-color="rgb(45.562744%, 84.568787%, 98.764038%)" offset="0.125"/><stop stop-opacity="1" stop-color="rgb(45.84198%, 84.660339%, 98.596191%)" offset="0.132812"/><stop stop-opacity="1" stop-color="rgb(46.121216%, 84.750366%, 98.428345%)" offset="0.140625"/><stop stop-opacity="1" stop-color="rgb(46.401978%, 84.841919%, 98.260498%)" offset="0.148437"/><stop stop-opacity="1" stop-color="rgb(46.681213%, 84.933472%, 98.094177%)" offset="0.15625"/><stop stop-opacity="1" stop-color="rgb(46.961975%, 85.023499%, 97.926331%)" offset="0.164062"/><stop stop-opacity="1" stop-color="rgb(47.241211%, 85.115051%, 97.758484%)" offset="0.171875"/><stop stop-opacity="1" stop-color="rgb(47.520447%, 85.205078%, 97.590637%)" offset="0.179687"/><stop stop-opacity="1" stop-color="rgb(47.801208%, 85.296631%, 97.422791%)" offset="0.1875"/><stop stop-opacity="1" stop-color="rgb(48.080444%, 85.386658%, 97.254944%)" offset="0.195312"/><stop stop-opacity="1" stop-color="rgb(48.361206%, 85.47821%, 97.088623%)" offset="0.203125"/><stop stop-opacity="1" stop-color="rgb(48.640442%, 85.569763%, 96.920776%)" offset="0.210937"/><stop stop-opacity="1" stop-color="rgb(48.921204%, 85.65979%, 96.75293%)" offset="0.21875"/><stop stop-opacity="1" stop-color="rgb(49.200439%, 85.751343%, 96.585083%)" offset="0.226562"/><stop stop-opacity="1" stop-color="rgb(49.479675%, 85.84137%, 96.417236%)" offset="0.234375"/><stop stop-opacity="1" stop-color="rgb(49.760437%, 85.932922%, 96.250916%)" offset="0.242188"/><stop stop-opacity="1" stop-color="rgb(50.039673%, 86.024475%, 96.083069%)" offset="0.25"/><stop stop-opacity="1" stop-color="rgb(50.320435%, 86.114502%, 95.915222%)" offset="0.257812"/><stop stop-opacity="1" stop-color="rgb(50.59967%, 86.206055%, 95.747375%)" offset="0.265625"/><stop stop-opacity="1" stop-color="rgb(50.878906%, 86.296082%, 95.579529%)" offset="0.273438"/><stop stop-opacity="1" stop-color="rgb(51.159668%, 86.387634%, 95.413208%)" offset="0.28125"/><stop stop-opacity="1" stop-color="rgb(51.438904%, 86.477661%, 95.245361%)" offset="0.289062"/><stop stop-opacity="1" stop-color="rgb(51.719666%, 86.569214%, 95.077515%)" offset="0.296875"/><stop stop-opacity="1" stop-color="rgb(51.998901%, 86.660767%, 94.909668%)" offset="0.304687"/><stop stop-opacity="1" stop-color="rgb(52.279663%, 86.750793%, 94.741821%)" offset="0.3125"/><stop stop-opacity="1" stop-color="rgb(52.558899%, 86.842346%, 94.573975%)" offset="0.320312"/><stop stop-opacity="1" stop-color="rgb(52.838135%, 86.932373%, 94.407654%)" offset="0.328125"/><stop stop-opacity="1" stop-color="rgb(53.118896%, 87.023926%, 94.239807%)" offset="0.335938"/><stop stop-opacity="1" stop-color="rgb(53.398132%, 87.115479%, 94.07196%)" offset="0.34375"/><stop stop-opacity="1" stop-color="rgb(53.678894%, 87.205505%, 93.904114%)" offset="0.351562"/><stop stop-opacity="1" stop-color="rgb(53.95813%, 87.297058%, 93.736267%)" offset="0.359375"/><stop stop-opacity="1" stop-color="rgb(54.237366%, 87.387085%, 93.569946%)" offset="0.367187"/><stop stop-opacity="1" stop-color="rgb(54.518127%, 87.478638%, 93.4021%)" offset="0.375"/><stop stop-opacity="1" stop-color="rgb(54.797363%, 87.568665%, 93.234253%)" offset="0.382812"/><stop stop-opacity="1" stop-color="rgb(55.078125%, 87.660217%, 93.066406%)" offset="0.390625"/><stop stop-opacity="1" stop-color="rgb(55.357361%, 87.75177%, 92.89856%)" offset="0.398438"/><stop stop-opacity="1" stop-color="rgb(55.636597%, 87.841797%, 92.730713%)" offset="0.40625"/><stop stop-opacity="1" stop-color="rgb(55.917358%, 87.93335%, 92.564392%)" offset="0.414062"/><stop stop-opacity="1" stop-color="rgb(56.196594%, 88.023376%, 92.396545%)" offset="0.421875"/><stop stop-opacity="1" stop-color="rgb(56.477356%, 88.114929%, 92.228699%)" offset="0.429688"/><stop stop-opacity="1" stop-color="rgb(56.756592%, 88.204956%, 92.060852%)" offset="0.4375"/><stop stop-opacity="1" stop-color="rgb(57.037354%, 88.296509%, 91.893005%)" offset="0.445312"/><stop stop-opacity="1" stop-color="rgb(57.316589%, 88.388062%, 91.726685%)" offset="0.453125"/><stop stop-opacity="1" stop-color="rgb(57.595825%, 88.478088%, 91.558838%)" offset="0.460938"/><stop stop-opacity="1" stop-color="rgb(57.876587%, 88.569641%, 91.390991%)" offset="0.46875"/><stop stop-opacity="1" stop-color="rgb(58.155823%, 88.659668%, 91.223145%)" offset="0.476562"/><stop stop-opacity="1" stop-color="rgb(58.436584%, 88.751221%, 91.055298%)" offset="0.484375"/><stop stop-opacity="1" stop-color="rgb(58.71582%, 88.842773%, 90.887451%)" offset="0.492188"/><stop stop-opacity="1" stop-color="rgb(58.995056%, 88.9328%, 90.72113%)" offset="0.5"/><stop stop-opacity="1" stop-color="rgb(59.275818%, 89.024353%, 90.553284%)" offset="0.507812"/><stop stop-opacity="1" stop-color="rgb(59.555054%, 89.11438%, 90.385437%)" offset="0.515625"/><stop stop-opacity="1" stop-color="rgb(59.835815%, 89.205933%, 90.21759%)" offset="0.523437"/><stop stop-opacity="1" stop-color="rgb(60.115051%, 89.295959%, 90.049744%)" offset="0.53125"/><stop stop-opacity="1" stop-color="rgb(60.395813%, 89.387512%, 89.883423%)" offset="0.539062"/><stop stop-opacity="1" stop-color="rgb(60.675049%, 89.479065%, 89.715576%)" offset="0.546875"/><stop stop-opacity="1" stop-color="rgb(60.954285%, 89.569092%, 89.547729%)" offset="0.554688"/><stop stop-opacity="1" stop-color="rgb(61.235046%, 89.660645%, 89.379883%)" offset="0.5625"/><stop stop-opacity="1" stop-color="rgb(61.514282%, 89.750671%, 89.212036%)" offset="0.570312"/><stop stop-opacity="1" stop-color="rgb(61.795044%, 89.842224%, 89.045715%)" offset="0.578125"/><stop stop-opacity="1" stop-color="rgb(62.07428%, 89.932251%, 88.877869%)" offset="0.585938"/><stop stop-opacity="1" stop-color="rgb(62.353516%, 90.023804%, 88.710022%)" offset="0.59375"/><stop stop-opacity="1" stop-color="rgb(62.634277%, 90.115356%, 88.542175%)" offset="0.601562"/><stop stop-opacity="1" stop-color="rgb(62.913513%, 90.205383%, 88.374329%)" offset="0.609375"/><stop stop-opacity="1" stop-color="rgb(63.194275%, 90.296936%, 88.206482%)" offset="0.617187"/><stop stop-opacity="1" stop-color="rgb(63.473511%, 90.386963%, 88.040161%)" offset="0.625"/><stop stop-opacity="1" stop-color="rgb(63.754272%, 90.478516%, 87.872314%)" offset="0.632812"/><stop stop-opacity="1" stop-color="rgb(64.033508%, 90.570068%, 87.704468%)" offset="0.640625"/><stop stop-opacity="1" stop-color="rgb(64.312744%, 90.660095%, 87.536621%)" offset="0.648438"/><stop stop-opacity="1" stop-color="rgb(64.593506%, 90.751648%, 87.368774%)" offset="0.65625"/><stop stop-opacity="1" stop-color="rgb(64.872742%, 90.841675%, 87.202454%)" offset="0.664062"/><stop stop-opacity="1" stop-color="rgb(65.153503%, 90.933228%, 87.034607%)" offset="0.671875"/><stop stop-opacity="1" stop-color="rgb(65.432739%, 91.023254%, 86.86676%)" offset="0.679687"/><stop stop-opacity="1" stop-color="rgb(65.711975%, 91.114807%, 86.698914%)" offset="0.6875"/><stop stop-opacity="1" stop-color="rgb(65.992737%, 91.20636%, 86.531067%)" offset="0.695312"/><stop stop-opacity="1" stop-color="rgb(66.271973%, 91.296387%, 86.36322%)" offset="0.703125"/><stop stop-opacity="1" stop-color="rgb(66.552734%, 91.387939%, 86.196899%)" offset="0.710937"/><stop stop-opacity="1" stop-color="rgb(66.83197%, 91.477966%, 86.029053%)" offset="0.71875"/><stop stop-opacity="1" stop-color="rgb(67.111206%, 91.569519%, 85.861206%)" offset="0.726562"/><stop stop-opacity="1" stop-color="rgb(67.391968%, 91.661072%, 85.693359%)" offset="0.734375"/><stop stop-opacity="1" stop-color="rgb(67.671204%, 91.751099%, 85.525513%)" offset="0.742187"/><stop stop-opacity="1" stop-color="rgb(67.951965%, 91.842651%, 85.359192%)" offset="0.75"/><stop stop-opacity="1" stop-color="rgb(68.231201%, 91.932678%, 85.191345%)" offset="0.757812"/><stop stop-opacity="1" stop-color="rgb(68.511963%, 92.024231%, 85.023499%)" offset="0.765625"/><stop stop-opacity="1" stop-color="rgb(68.791199%, 92.114258%, 84.855652%)" offset="0.773438"/><stop stop-opacity="1" stop-color="rgb(69.070435%, 92.205811%, 84.687805%)" offset="0.78125"/><stop stop-opacity="1" stop-color="rgb(69.351196%, 92.297363%, 84.521484%)" offset="0.789062"/><stop stop-opacity="1" stop-color="rgb(69.630432%, 92.38739%, 84.353638%)" offset="0.796875"/><stop stop-opacity="1" stop-color="rgb(69.911194%, 92.478943%, 84.185791%)" offset="0.804688"/><stop stop-opacity="1" stop-color="rgb(70.19043%, 92.56897%, 84.017944%)" offset="0.8125"/><stop stop-opacity="1" stop-color="rgb(70.469666%, 92.660522%, 83.850098%)" offset="0.820312"/><stop stop-opacity="1" stop-color="rgb(70.750427%, 92.750549%, 83.682251%)" offset="0.828125"/><stop stop-opacity="1" stop-color="rgb(71.029663%, 92.842102%, 83.51593%)" offset="0.835937"/><stop stop-opacity="1" stop-color="rgb(71.310425%, 92.933655%, 83.348083%)" offset="0.84375"/><stop stop-opacity="1" stop-color="rgb(71.589661%, 93.023682%, 83.180237%)" offset="0.851562"/><stop stop-opacity="1" stop-color="rgb(71.870422%, 93.115234%, 83.01239%)" offset="0.859375"/><stop stop-opacity="1" stop-color="rgb(72.149658%, 93.205261%, 82.844543%)" offset="0.867188"/><stop stop-opacity="1" stop-color="rgb(72.428894%, 93.296814%, 82.678223%)" offset="0.875"/><stop stop-opacity="1" stop-color="rgb(72.709656%, 93.388367%, 82.510376%)" offset="0.882812"/><stop stop-opacity="1" stop-color="rgb(72.988892%, 93.478394%, 82.342529%)" offset="0.890625"/><stop stop-opacity="1" stop-color="rgb(73.269653%, 93.569946%, 82.174683%)" offset="0.898437"/><stop stop-opacity="1" stop-color="rgb(73.548889%, 93.659973%, 82.006836%)" offset="0.90625"/><stop stop-opacity="1" stop-color="rgb(73.828125%, 93.751526%, 81.838989%)" offset="0.914062"/><stop stop-opacity="1" stop-color="rgb(74.108887%, 93.841553%, 81.672668%)" offset="0.921875"/><stop stop-opacity="1" stop-color="rgb(74.388123%, 93.933105%, 81.504822%)" offset="0.929688"/><stop stop-opacity="1" stop-color="rgb(74.668884%, 94.024658%, 81.336975%)" offset="0.9375"/><stop stop-opacity="1" stop-color="rgb(74.853516%, 94.084167%, 81.225586%)" offset="1"/></linearGradient></defs><g clip-path="url(#74e7c78324)"><g clip-path="url(#ab122d397a)"><path fill="url(#bb0b40dcb7)" d="M 323.527344 374.394531 L 373.429688 49.773438 L 51.6875 0.46875 L 1.785156 325.089844 Z M 323.527344 374.394531 " fill-rule="nonzero"/></g></g><g fill="#000000" fill-opacity="1"><g transform="translate(82.752363, 204.792693)"><g><path d="M 98.222656 -61.320312 C 98.15625 -62.8125 97.273438 -62.8125 96.730469 -62.476562 C 94.96875 -61.1875 90.695312 -57.453125 85.46875 -52.640625 C 83.84375 -55.757812 80.113281 -57.453125 75.5 -57.453125 C 46.804688 -57.453125 -0.339844 -26.183594 -0.339844 3.664062 C -0.339844 13.363281 6.375 19.941406 16.078125 19.941406 C 32.492188 19.941406 57.046875 8.75 75.363281 -6.308594 C 77.804688 -8.277344 77.535156 -11.125 76.71875 -10.515625 C 60.371094 2.578125 36.5625 16.347656 16.078125 16.347656 C 8.34375 16.347656 3.527344 11.53125 3.527344 3.664062 C 3.527344 -23.878906 48.367188 -53.925781 75.296875 -53.925781 C 78.824219 -53.925781 81.265625 -52.164062 81.941406 -49.382812 C 70.546875 -38.734375 56.914062 -24.894531 55.828125 -20.011719 C 55.214844 -17.367188 56.980469 -16.28125 57.660156 -16.28125 C 58.675781 -16.28125 59.082031 -17.703125 58.742188 -18.992188 C 58.539062 -19.671875 59.015625 -20.351562 60.371094 -21.976562 C 66.003906 -28.964844 75.023438 -38.054688 83.097656 -45.585938 C 84.25 -45.246094 86.148438 -46.398438 86.214844 -48.367188 L 86.214844 -48.433594 C 91.710938 -53.386719 96.324219 -57.25 98.628906 -58.742188 C 99.445312 -59.285156 99.242188 -61.050781 98.222656 -61.320312 Z M 98.222656 -61.320312 "/></g></g></g><g fill="#000000" fill-opacity="1"><g transform="translate(155.929931, 204.792693)"><g><path d="M 36.085938 -16.550781 C 33.714844 -14.175781 17.09375 1.832031 15.464844 0.136719 C 13.160156 -2.238281 30.117188 -23.539062 32.492188 -23.878906 C 34.121094 -24.082031 31.269531 -27.539062 29.847656 -26.660156 C 28.695312 -25.980469 27.269531 -24.421875 26.117188 -23.0625 C 25.300781 -24.625 22.792969 -26.320312 20.078125 -26.320312 C 14.921875 -26.320312 -0.679688 -10.242188 -0.679688 -4.273438 C -0.679688 -1.832031 1.152344 0 2.714844 0 C 4.953125 0 11.125 -5.425781 16.28125 -10.242188 C 13.429688 -5.96875 11.871094 -2.578125 11.871094 0.339844 C 11.871094 1.898438 13.5 4.207031 15.125 4.207031 C 19.265625 4.207031 34.1875 -11.191406 35.476562 -12.414062 C 37.375 -14.109375 37.308594 -17.773438 36.085938 -16.550781 Z M 2.714844 -4.070312 C 1.152344 -6.171875 15.125 -22.65625 20.011719 -22.65625 C 21.570312 -22.65625 22.925781 -21.097656 23.199219 -20.417969 C 20.28125 -16.957031 3.933594 -2.441406 2.714844 -4.070312 Z M 2.714844 -4.070312 "/></g></g></g><g fill="#000000" fill-opacity="1"><g transform="translate(184.414247, 204.792693)"><g><path d="M 1.355469 2.917969 C 4.273438 2.78125 13.09375 -5.96875 15.535156 -8.613281 C 19.195312 -12.550781 19.195312 -14.515625 17.5 -13.023438 C 8.070312 -4.476562 3.933594 -1.222656 3.050781 -1.832031 C 1.898438 -2.644531 12.617188 -19.0625 16.210938 -22.996094 C 22.722656 -28.761719 44.296875 -51.078125 44.089844 -55.488281 C 44.023438 -56.640625 43.140625 -57.792969 41.582031 -57.726562 C 36.359375 -57.453125 -1.628906 -6.578125 -1.289062 -0.136719 C -1.222656 1.355469 -0.136719 2.984375 1.355469 2.917969 Z M 1.355469 2.917969 "/></g></g></g><g fill="#000000" fill-opacity="1"><g transform="translate(201.979574, 204.792693)"><g><path d="M 21.910156 -29.710938 C 22.316406 -29.710938 31.40625 -36.496094 31.339844 -37.511719 C 31.203125 -38.800781 30.117188 -39.683594 28.898438 -39.613281 C 27.132812 -39.480469 21.976562 -34.050781 20.960938 -31.609375 C 20.621094 -30.796875 21.097656 -29.644531 21.910156 -29.710938 Z M 4.003906 1.085938 C 8.003906 1.085938 14.921875 -6.242188 21.097656 -12.210938 C 22.386719 -13.5 23.808594 -18.519531 21.84375 -16.550781 C 14.3125 -8.953125 5.765625 -1.492188 4.339844 -2.984375 C 2.035156 -5.359375 15.601562 -22.046875 17.296875 -22.046875 C 18.316406 -22.046875 17.773438 -25.4375 15.804688 -25.4375 C 14.585938 -25.4375 12.277344 -22.519531 7.191406 -16.414062 C 4.136719 -12.683594 0.746094 -7.054688 0.746094 -3.257812 C 0.746094 -1.355469 2.375 1.085938 4.003906 1.085938 Z M 4.003906 1.085938 "/></g></g></g><g fill="#000000" fill-opacity="1"><g transform="translate(216.086097, 204.792693)"><g><path d="M 30.523438 -13.972656 C 34.1875 -18.179688 35.882812 -21.027344 35.75 -22.722656 C 35.476562 -26.386719 33.441406 -26.660156 32.222656 -26.660156 C 26.929688 -26.660156 14.246094 -18.179688 6.578125 -10.445312 C 8.140625 -12.550781 9.496094 -14.3125 10.582031 -15.601562 C 16.6875 -22.792969 20.960938 -26.523438 21.503906 -26.660156 C 22.925781 -26.996094 20.148438 -30.933594 18.382812 -29.644531 C 15.601562 -27.472656 8.75 -18.652344 -1.085938 -5.496094 C -5.5625 0.476562 -18.382812 20.894531 -20.824219 24.554688 C -21.503906 25.574219 -22.722656 27.609375 -22.722656 29.234375 C -22.722656 30.117188 -22.386719 31.269531 -21.097656 31.269531 C -19.195312 31.269531 -17.570312 29.03125 -15.738281 26.523438 C -13.90625 23.945312 -11.597656 19.808594 -13.5 21.433594 C -14.515625 22.316406 -15.738281 23.335938 -16.28125 23.605469 C -13.972656 19.671875 -9.226562 12.34375 -4.273438 4.953125 C 7.9375 -11.328125 28.488281 -24.691406 30.796875 -22.722656 C 31.882812 -21.773438 29.101562 -17.636719 24.554688 -12.414062 C 14.246094 -9.359375 5.085938 -4.816406 5.085938 -1.152344 C 5.085938 1.222656 6.988281 3.460938 8.75 3.460938 C 13.839844 3.460938 21.027344 -3.527344 28.152344 -11.394531 C 30.320312 -12.074219 32.695312 -12.753906 35.136719 -13.429688 C 37.035156 -13.972656 33.441406 -14.652344 30.523438 -13.972656 Z M 10.039062 -1.152344 C 8.75 -2.578125 13.5 -5.765625 21.367188 -8.953125 C 17.433594 -4.816406 11.464844 0.476562 10.039062 -1.152344 Z M 10.039062 -1.152344 "/></g></g></g><g fill="#000000" fill-opacity="1"><g transform="translate(248.775236, 204.792693)"><g><path d="M 25.300781 -15.398438 C 23.675781 -15.125 21.910156 -14.652344 20.148438 -14.042969 C 22.386719 -18.382812 23.808594 -22.046875 23.808594 -23.878906 C 23.808594 -25.4375 22.179688 -27.742188 20.554688 -27.742188 C 17.839844 -27.742188 9.769531 -18.113281 -1.558594 -7.9375 C -3.460938 -6.242188 -0.40625 -7.191406 0.949219 -7.9375 C 3.59375 -9.429688 5.289062 -10.648438 6.917969 -12.210938 C 12.753906 -17.90625 18.382812 -23.0625 19.195312 -22.453125 C 19.941406 -21.910156 17.5 -16.414062 14.992188 -11.804688 C 5.359375 -7.054688 -3.867188 0.882812 -3.867188 3.730469 C -3.867188 5.96875 -1.558594 7.734375 0.40625 7.734375 C 4.410156 7.734375 10.378906 2.101562 15.398438 -5.832031 C 16.550781 -7.664062 17.636719 -9.496094 18.585938 -11.191406 C 20.078125 -12.007812 21.503906 -12.617188 22.65625 -13.09375 C 26.386719 -14.515625 27.878906 -15.804688 25.300781 -15.398438 Z M 12.074219 -6.988281 C 9.835938 -3.933594 1.96875 6.242188 0.339844 3.867188 C -0.746094 2.304688 5.699219 -3.121094 12.480469 -7.597656 Z M 12.074219 -6.988281 "/></g></g></g><g fill="#000000" fill-opacity="1"><g transform="translate(272.51217, 204.792693)"><g><path d="M 33.101562 -22.046875 C 31.066406 -21.097656 25.371094 -19.941406 22.519531 -20.011719 C 21.773438 -20.011719 21.097656 -20.148438 20.484375 -20.28125 C 20.6875 -22.179688 20.28125 -23.945312 19.0625 -24.757812 C 19.875 -25.300781 20.554688 -25.640625 21.230469 -25.640625 C 22.519531 -25.640625 21.230469 -28.21875 19.265625 -28.21875 C 14.992188 -28.21875 -3.664062 -3.050781 -3.730469 0 C -3.796875 2.304688 -1.832031 3.460938 -0.8125 3.527344 C 3.664062 3.867188 16.753906 -12.277344 19.671875 -17.5 C 20.351562 -17.367188 21.027344 -17.230469 21.773438 -17.230469 C 24.757812 -17.160156 28.488281 -17.976562 31.40625 -19.605469 C 34.324219 -21.300781 34.460938 -22.65625 33.101562 -22.046875 Z M 1.355469 -1.96875 C 0.203125 -3.121094 11.9375 -17.230469 15.398438 -21.230469 C 15.667969 -20.6875 16.007812 -20.148438 16.484375 -19.605469 L 16.484375 -19.195312 C 16.414062 -16.210938 2.78125 -0.542969 1.355469 -1.96875 Z M 1.355469 -1.96875 "/></g></g></g><g fill="#000000" fill-opacity="1"><g transform="translate(137.312707, 231.308838)"><g><path d="M 2.953125 -14.328125 L 0.234375 -14.328125 L 0.234375 -15.921875 L 7.5 -15.921875 L 7.5 -14.328125 L 4.78125 -14.328125 L 4.78125 0 L 2.953125 0 Z M 2.953125 -14.328125 "/></g></g></g><g fill="#000000" fill-opacity="1"><g transform="translate(145.043804, 231.308838)"><g><path d="M 1.359375 -15.921875 L 4.546875 -15.921875 C 5.921875 -15.921875 6.945312 -15.570312 7.625 -14.875 C 8.300781 -14.1875 8.640625 -13.128906 8.640625 -11.703125 L 8.640625 -11.140625 C 8.640625 -10.335938 8.53125 -9.703125 8.3125 -9.234375 C 8.101562 -8.765625 7.867188 -8.414062 7.609375 -8.1875 C 7.304688 -7.90625 6.96875 -7.71875 6.59375 -7.625 L 6.59375 -7.5 C 6.90625 -7.414062 7.1875 -7.28125 7.4375 -7.09375 C 7.65625 -6.925781 7.851562 -6.691406 8.03125 -6.390625 C 8.21875 -6.097656 8.3125 -5.710938 8.3125 -5.234375 L 8.3125 -1.8125 C 8.3125 -1.5 8.359375 -1.253906 8.453125 -1.078125 C 8.546875 -0.898438 8.648438 -0.757812 8.765625 -0.65625 C 8.898438 -0.550781 9.050781 -0.484375 9.21875 -0.453125 L 9.21875 0 L 7.859375 0 C 7.453125 0 7.117188 -0.144531 6.859375 -0.4375 C 6.597656 -0.738281 6.46875 -1.195312 6.46875 -1.8125 L 6.46875 -5.234375 C 6.46875 -5.742188 6.316406 -6.132812 6.015625 -6.40625 C 5.722656 -6.6875 5.234375 -6.828125 4.546875 -6.828125 L 3.1875 -6.828125 L 3.1875 0 L 1.359375 0 Z M 4.546875 -8.40625 C 5.347656 -8.40625 5.925781 -8.601562 6.28125 -9 C 6.644531 -9.40625 6.828125 -10.117188 6.828125 -11.140625 L 6.828125 -11.703125 C 6.828125 -12.679688 6.644531 -13.363281 6.28125 -13.75 C 5.925781 -14.132812 5.347656 -14.328125 4.546875 -14.328125 L 3.1875 -14.328125 L 3.1875 -8.40625 Z M 4.546875 -8.40625 "/></g></g></g><g fill="#000000" fill-opacity="1"><g transform="translate(154.821374, 231.308838)"><g><path d="M 3.28125 -15.921875 L 5.6875 -15.921875 L 8.640625 0 L 6.828125 0 L 6.25 -3.1875 L 2.734375 -3.1875 L 2.171875 0 L 0.328125 0 Z M 6.015625 -4.78125 L 4.90625 -11.375 L 4.546875 -14.09375 L 4.4375 -14.09375 L 4.09375 -11.375 L 2.953125 -4.78125 Z M 6.015625 -4.78125 "/></g></g></g><g fill="#000000" fill-opacity="1"><g transform="translate(163.813436, 231.308838)"><g><path d="M 0.453125 -15.921875 L 2.28125 -15.921875 L 4.21875 -4.546875 L 4.546875 -1.8125 L 4.671875 -1.8125 L 5 -4.546875 L 6.921875 -15.921875 L 8.765625 -15.921875 L 5.78125 0 L 3.40625 0 Z M 0.453125 -15.921875 "/></g></g></g><g fill="#000000" fill-opacity="1"><g transform="translate(173.032881, 231.308838)"><g><path d="M 1.359375 -15.921875 L 7.734375 -15.921875 L 7.734375 -14.328125 L 3.1875 -14.328125 L 3.1875 -9.09375 L 6.359375 -9.09375 L 6.359375 -7.5 L 3.1875 -7.5 L 3.1875 -1.59375 L 7.953125 -1.59375 L 7.953125 0 L 1.359375 0 Z M 1.359375 -15.921875 "/></g></g></g><g fill="#000000" fill-opacity="1"><g transform="translate(181.446141, 231.308838)"><g><path d="M 1.359375 -15.921875 L 3.1875 -15.921875 L 3.1875 -1.59375 L 7.953125 -1.59375 L 7.953125 0 L 1.359375 0 Z M 1.359375 -15.921875 "/></g></g></g><g fill="#000000" fill-opacity="1"><g transform="translate(212.041572, 231.308838)"><g><path d="M 3.28125 -15.921875 L 5.6875 -15.921875 L 8.640625 0 L 6.828125 0 L 6.25 -3.1875 L 2.734375 -3.1875 L 2.171875 0 L 0.328125 0 Z M 6.015625 -4.78125 L 4.90625 -11.375 L 4.546875 -14.09375 L 4.4375 -14.09375 L 4.09375 -11.375 L 2.953125 -4.78125 Z M 6.015625 -4.78125 "/></g></g></g><g fill="#000000" fill-opacity="1"><g transform="translate(221.033634, 231.308838)"><g><path d="M 5 0.234375 C 3.800781 0.234375 2.859375 -0.125 2.171875 -0.84375 C 1.484375 -1.5625 1.140625 -2.609375 1.140625 -3.984375 L 1.140625 -11.96875 C 1.140625 -13.382812 1.460938 -14.429688 2.109375 -15.109375 C 2.753906 -15.796875 3.6875 -16.140625 4.90625 -16.140625 C 6.03125 -16.140625 6.914062 -15.804688 7.5625 -15.140625 C 8.207031 -14.472656 8.53125 -13.476562 8.53125 -12.15625 C 8.53125 -11.957031 8.523438 -11.757812 8.515625 -11.5625 C 8.503906 -11.363281 8.484375 -11.179688 8.453125 -11.015625 C 8.421875 -10.828125 8.398438 -10.640625 8.390625 -10.453125 L 6.828125 -10.453125 L 6.828125 -11.921875 C 6.828125 -12.898438 6.660156 -13.582031 6.328125 -13.96875 C 5.992188 -14.351562 5.519531 -14.546875 4.90625 -14.546875 C 4.269531 -14.546875 3.785156 -14.351562 3.453125 -13.96875 C 3.117188 -13.582031 2.953125 -12.914062 2.953125 -11.96875 L 2.953125 -3.984375 C 2.953125 -3.078125 3.140625 -2.410156 3.515625 -1.984375 C 3.890625 -1.566406 4.382812 -1.359375 5 -1.359375 C 5.625 -1.359375 6.117188 -1.566406 6.484375 -1.984375 C 6.859375 -2.410156 7.046875 -3.078125 7.046875 -3.984375 L 7.046875 -6.25 L 4.90625 -6.25 L 4.90625 -7.859375 L 8.875 -7.859375 L 8.875 0 L 8.3125 0 L 7.859375 -1.6875 L 7.734375 -1.6875 C 7.617188 -1.320312 7.445312 -1 7.21875 -0.71875 C 7.019531 -0.488281 6.742188 -0.269531 6.390625 -0.0625 C 6.046875 0.132812 5.582031 0.234375 5 0.234375 Z M 5 0.234375 "/></g></g></g><g fill="#000000" fill-opacity="1"><g transform="translate(231.038587, 231.308838)"><g><path d="M 1.359375 -15.921875 L 7.734375 -15.921875 L 7.734375 -14.328125 L 3.1875 -14.328125 L 3.1875 -9.09375 L 6.359375 -9.09375 L 6.359375 -7.5 L 3.1875 -7.5 L 3.1875 -1.59375 L 7.953125 -1.59375 L 7.953125 0 L 1.359375 0 Z M 1.359375 -15.921875 "/></g></g></g><g fill="#000000" fill-opacity="1"><g transform="translate(239.451847, 231.308838)"><g><path d="M 1.359375 -15.921875 L 3.765625 -15.921875 L 6.828125 -5.328125 L 7.40625 -3.1875 L 7.5 -3.1875 L 7.28125 -5.328125 L 7.28125 -15.921875 L 9.09375 -15.921875 L 9.09375 0 L 6.703125 0 L 3.640625 -10.578125 L 3.0625 -12.734375 L 2.953125 -12.734375 L 3.1875 -10.578125 L 3.1875 0 L 1.359375 0 Z M 1.359375 -15.921875 "/></g></g></g><g fill="#000000" fill-opacity="1"><g transform="translate(249.911579, 231.308838)"><g><path d="M 4.90625 0.234375 C 3.6875 0.234375 2.753906 -0.109375 2.109375 -0.796875 C 1.460938 -1.492188 1.140625 -2.554688 1.140625 -3.984375 L 1.140625 -11.921875 C 1.140625 -13.359375 1.460938 -14.421875 2.109375 -15.109375 C 2.753906 -15.796875 3.6875 -16.140625 4.90625 -16.140625 C 6.03125 -16.140625 6.914062 -15.804688 7.5625 -15.140625 C 8.207031 -14.472656 8.53125 -13.476562 8.53125 -12.15625 C 8.53125 -11.832031 8.523438 -11.53125 8.515625 -11.25 C 8.503906 -10.96875 8.488281 -10.71875 8.46875 -10.5 C 8.445312 -10.25 8.425781 -10.007812 8.40625 -9.78125 L 6.828125 -9.78125 L 6.828125 -11.921875 C 6.828125 -12.898438 6.660156 -13.582031 6.328125 -13.96875 C 5.992188 -14.351562 5.519531 -14.546875 4.90625 -14.546875 C 4.269531 -14.546875 3.785156 -14.351562 3.453125 -13.96875 C 3.117188 -13.582031 2.953125 -12.898438 2.953125 -11.921875 L 2.953125 -3.984375 C 2.953125 -3.003906 3.117188 -2.320312 3.453125 -1.9375 C 3.785156 -1.550781 4.269531 -1.359375 4.90625 -1.359375 C 5.519531 -1.359375 5.992188 -1.550781 6.328125 -1.9375 C 6.660156 -2.320312 6.828125 -3.003906 6.828125 -3.984375 L 6.828125 -6.359375 L 8.40625 -6.359375 C 8.425781 -6.085938 8.445312 -5.804688 8.46875 -5.515625 C 8.488281 -5.265625 8.503906 -4.988281 8.515625 -4.6875 C 8.523438 -4.382812 8.53125 -4.078125 8.53125 -3.765625 C 8.53125 -2.441406 8.207031 -1.441406 7.5625 -0.765625 C 6.914062 -0.0976562 6.03125 0.234375 4.90625 0.234375 Z M 4.90625 0.234375 "/></g></g></g><g fill="#000000" fill-opacity="1"><g transform="translate(259.461766, 231.308838)"><g><path d="M 3.40625 -5.6875 L 0.109375 -15.921875 L 2.046875 -15.921875 L 4.265625 -8.3125 L 4.375 -8.3125 L 6.59375 -15.921875 L 8.53125 -15.921875 L 5.234375 -5.6875 L 5.234375 0 L 3.40625 0 Z M 3.40625 -5.6875 "/></g></g></g></svg>